<svg xmlns="http://www.w3.org/2000/svg" viewBox="0 0 1400 960" font-family="'DM Mono', 'Courier New', monospace" font-size="11">
<style>
  .bg       { fill: #ffffff; }
  .entity   { fill: #ffffff; stroke: #000000; stroke-width: 1.5; }
  .eheader  { fill: #e0e0e0; stroke: #000000; stroke-width: 1.5; }
  .etitle   { font-family: 'DM Serif Display', Georgia, serif; font-size: 16px; font-weight: 700; fill: #000000; font-style: italic; }
  .attr     { font-family: 'DM Mono', monospace; font-size: 11px; fill: #000000; }
  .adim     { font-family: 'DM Mono', monospace; font-size: 11px; fill: #555555; }
  .akey     { font-family: 'DM Mono', monospace; font-size: 11px; fill: #000000; font-weight: 700; }
  .divider  { stroke: #999999; stroke-width: 0.5; stroke-dasharray: 2,3; }
  .rel      { stroke: #000000; stroke-width: 1.5; fill: none; }
  .crow     { stroke: #000000; stroke-width: 1.5; fill: none; }
  .rlabel   { font-family: 'DM Mono', monospace; font-size: 10px; fill: #000000; font-style: italic; }
  .rlabel-bg{ fill: #ffffff; stroke: #000000; stroke-width: 0.5; }
  .note     { fill: #f5f5f5; stroke: #000000; stroke-width: 1; }
  .nfold    { fill: #ffffff; stroke: #000000; stroke-width: 1; }
  .ntext    { font-family: 'DM Mono', monospace; font-size: 10px; fill: #000000; }
  .title    { font-family: 'DM Serif Display', Georgia, serif; font-size: 22px; fill: #000000; font-style: italic; }
  .subtitle { font-family: 'DM Mono', monospace; font-size: 10px; fill: #555555; letter-spacing: 0.12em; text-transform: uppercase; }
  .legend   { font-family: 'DM Mono', monospace; font-size: 10px; fill: #555555; }
</style>

<rect class="bg" width="1400" height="960"/>

<!-- ═══ zones (top-left) ═══ -->
<rect class="eheader" x="70" y="80" width="260" height="30"/>
<text x="200" y="100" text-anchor="middle" class="etitle">zones</text>
<rect class="entity" x="70" y="110" width="260" height="140"/>
<text x="86" y="132" class="akey">★ zone_id : INT  &lt;&lt;PK&gt;&gt;</text>
<line class="divider" x1="86" y1="143" x2="316" y2="143"/>
<text x="86" y="160" class="attr">* zone_name : VARCHAR(100)</text>
<text x="86" y="176" class="attr">* avg_lat : DECIMAL(9,6)</text>
<text x="86" y="192" class="attr">* avg_lon : DECIMAL(9,6)</text>
<text x="86" y="208" class="adim">  trip_count : INT</text>
<text x="86" y="232" class="adim" font-style="italic">UQ: zone_name</text>

<!-- Dimension table note (below zones) -->
<rect class="note" x="70" y="270" width="260" height="120"/>
<polygon class="nfold" points="70,270 70,285 85,270"/>
<text x="82" y="290" class="ntext" font-weight="700">Dimension table</text>
<text x="82" y="308" class="ntext">31 zones pre-seeded</text>
<text x="82" y="324" class="ntext">before ETL begins.</text>
<text x="82" y="346" class="ntext">Informal lat/lon buckets</text>
<text x="82" y="362" class="ntext">named after Manhattan</text>
<text x="82" y="378" class="ntext">neighbourhoods.</text>

<!-- ═══ time_slots (top-right) ═══ -->
<rect class="eheader" x="1070" y="80" width="260" height="30"/>
<text x="1200" y="100" text-anchor="middle" class="etitle">time_slots</text>
<rect class="entity" x="1070" y="110" width="260" height="140"/>
<text x="1086" y="132" class="akey">★ slot_id : INT  &lt;&lt;PK&gt;&gt;</text>
<line class="divider" x1="1086" y1="143" x2="1316" y2="143"/>
<text x="1086" y="160" class="attr">* hour_of_day : INT</text>
<text x="1086" y="176" class="attr">* day_of_week : INT</text>
<text x="1086" y="192" class="attr">* period : VARCHAR(20)</text>
<text x="1086" y="208" class="attr">* is_weekend : BOOLEAN</text>
<text x="1086" y="232" class="adim" font-style="italic">UQ: (hour, day)</text>

<!-- Dimension table note (below time_slots) -->
<rect class="note" x="1070" y="270" width="260" height="120"/>
<polygon class="nfold" points="1070,270 1070,285 1085,270"/>
<text x="1082" y="290" class="ntext" font-weight="700">Dimension table</text>
<text x="1082" y="308" class="ntext">168 slots pre-seeded</text>
<text x="1082" y="324" class="ntext">(24 hours x 7 days).</text>
<text x="1082" y="346" class="ntext">period CHECK constraint:</text>
<text x="1082" y="362" class="ntext">  morning / afternoon</text>
<text x="1082" y="378" class="ntext">  evening / night</text>

<!-- ═══ trips (FACT, center) ═══ -->
<rect class="eheader" x="490" y="340" width="420" height="32"/>
<text x="700" y="362" text-anchor="middle" class="etitle">trips</text>
<rect class="entity" x="490" y="372" width="420" height="370"/>
<text x="506" y="394" class="akey">★ trip_id : VARCHAR(20)  &lt;&lt;PK&gt;&gt;</text>
<line class="divider" x1="506" y1="405" x2="894" y2="405"/>
<text x="506" y="422" class="attr">* vendor_id : INT</text>
<text x="506" y="438" class="attr">* pickup_datetime : DATETIME</text>
<text x="506" y="454" class="attr">* dropoff_datetime : DATETIME</text>
<text x="506" y="470" class="attr">* passenger_count : INT</text>
<text x="506" y="486" class="attr">* pickup_longitude : DECIMAL(9,6)</text>
<text x="506" y="502" class="attr">* pickup_latitude : DECIMAL(9,6)</text>
<text x="506" y="518" class="attr">* dropoff_longitude : DECIMAL(9,6)</text>
<text x="506" y="534" class="attr">* dropoff_latitude : DECIMAL(9,6)</text>
<text x="506" y="550" class="attr">* store_and_fwd_flag : CHAR(1)</text>
<text x="506" y="566" class="attr">* trip_duration : INT</text>
<line class="divider" x1="506" y1="578" x2="894" y2="578"/>
<text x="506" y="595" class="adim" font-style="italic">derived during ETL (+):</text>
<text x="506" y="611" class="attr">+ distance_km : DECIMAL(6,3)</text>
<text x="506" y="627" class="attr">+ speed_kmh : DECIMAL(6,2)</text>
<text x="506" y="643" class="attr">+ hour_of_day : INT</text>
<text x="506" y="659" class="attr">+ day_of_week : INT</text>
<text x="506" y="675" class="attr">+ month : INT</text>
<line class="divider" x1="506" y1="687" x2="894" y2="687"/>
<text x="506" y="704" class="akey"># pickup_zone_id : INT  &lt;&lt;FK&gt;&gt;</text>
<text x="506" y="720" class="akey"># time_slot_id  : INT  &lt;&lt;FK&gt;&gt;</text>

<!-- Fact table note (left of trips, in safe gap) -->
<rect class="note" x="340" y="372" width="140" height="160"/>
<polygon class="nfold" points="340,372 340,387 355,372"/>
<text x="352" y="392" class="ntext" font-weight="700">Fact table</text>
<text x="352" y="410" class="ntext">17 attributes</text>
<text x="352" y="426" class="ntext">2 foreign keys</text>
<text x="352" y="442" class="ntext">12 indexes</text>
<text x="352" y="464" class="ntext">+ = derived</text>
<text x="352" y="480" class="ntext">  during ETL</text>
<text x="352" y="502" class="ntext">~1.46M rows</text>
<text x="352" y="518" class="ntext" font-style="italic" fill="#555555">~115k rows/sec</text>

<!-- ═══ trip_flags (bottom-left) ═══ -->
<rect class="eheader" x="70" y="550" width="260" height="30"/>
<text x="200" y="570" text-anchor="middle" class="etitle">trip_flags</text>
<rect class="entity" x="70" y="580" width="260" height="128"/>
<text x="86" y="602" class="akey">★ flag_id : INT  &lt;&lt;PK&gt;&gt;</text>
<line class="divider" x1="86" y1="613" x2="316" y2="613"/>
<text x="86" y="630" class="akey"># trip_id : VARCHAR(20)  &lt;&lt;FK&gt;&gt;</text>
<text x="86" y="646" class="attr">* flag_type : VARCHAR(50)</text>
<text x="86" y="662" class="adim">  description : TEXT</text>
<text x="86" y="690" class="adim" font-style="italic">ON DELETE CASCADE</text>

<!-- ═══ cleaning_log (bottom-right) ═══ -->
<rect class="eheader" x="1070" y="550" width="260" height="30"/>
<text x="1200" y="570" text-anchor="middle" class="etitle">cleaning_log</text>
<rect class="entity" x="1070" y="580" width="260" height="150"/>
<text x="1086" y="602" class="akey">★ log_id : INT  &lt;&lt;PK&gt;&gt;</text>
<line class="divider" x1="1086" y1="613" x2="1316" y2="613"/>
<text x="1086" y="630" class="attr">* stage : VARCHAR(50)</text>
<text x="1086" y="646" class="attr">* records_in : INT</text>
<text x="1086" y="662" class="attr">* records_out : INT</text>
<text x="1086" y="678" class="adim">  records_excluded : INT</text>
<text x="1086" y="694" class="adim">  reason : TEXT</text>
<text x="1086" y="710" class="attr">* created_at : DATETIME</text>

<!-- ═══ RELATIONSHIPS (Crow's Foot) ═══ -->
<!-- zones 1 to many trips -->
<path class="rel" d="M 330 190 Q 440 190 490 440"/>
<line class="crow" x1="320" y1="182" x2="320" y2="198"/>
<line class="crow" x1="328" y1="182" x2="328" y2="198"/>
<line class="crow" x1="490" y1="440" x2="504" y2="432"/>
<line class="crow" x1="490" y1="440" x2="504" y2="440"/>
<line class="crow" x1="490" y1="440" x2="504" y2="448"/>
<rect class="rlabel-bg" x="370" y="240" width="90" height="18"/>
<text x="415" y="253" text-anchor="middle" class="rlabel">is pickup of</text>

<!-- time_slots 1 to many trips -->
<path class="rel" d="M 1070 190 Q 960 190 910 440"/>
<line class="crow" x1="1076" y1="182" x2="1076" y2="198"/>
<line class="crow" x1="1068" y1="182" x2="1068" y2="198"/>
<line class="crow" x1="910" y1="440" x2="896" y2="432"/>
<line class="crow" x1="910" y1="440" x2="896" y2="440"/>
<line class="crow" x1="910" y1="440" x2="896" y2="448"/>
<rect class="rlabel-bg" x="940" y="240" width="82" height="18"/>
<text x="981" y="253" text-anchor="middle" class="rlabel">occurs in</text>

<!-- trips 1 to many trip_flags -->
<path class="rel" d="M 490 630 Q 420 630 330 625"/>
<line class="crow" x1="490" y1="622" x2="490" y2="638"/>
<line class="crow" x1="498" y1="622" x2="498" y2="638"/>
<line class="crow" x1="330" y1="625" x2="344" y2="617"/>
<line class="crow" x1="330" y1="625" x2="344" y2="625"/>
<line class="crow" x1="330" y1="625" x2="344" y2="633"/>
<rect class="rlabel-bg" x="375" y="612" width="82" height="18"/>
<text x="416" y="625" text-anchor="middle" class="rlabel">may raise</text>

<!-- ═══ NOTES (bottom row) ═══ -->
<!-- below trip_flags -->
<rect class="note" x="70" y="740" width="260" height="140"/>
<polygon class="nfold" points="70,740 70,755 85,740"/>
<text x="82" y="760" class="ntext" font-weight="700">Weak entity</text>
<text x="82" y="778" class="ntext">Anomaly rows separated</text>
<text x="82" y="794" class="ntext">from the main fact table.</text>
<text x="82" y="816" class="ntext">Flag types:</text>
<text x="82" y="832" class="ntext">  high_speed  (&gt;80 km/h)</text>
<text x="82" y="848" class="ntext">  long_trip   (&gt;2 hours)</text>
<text x="82" y="864" class="ntext">  long_distance (&gt;30 km)</text>

<!-- below cleaning_log -->
<rect class="note" x="1070" y="740" width="260" height="110"/>
<polygon class="nfold" points="1070,740 1070,755 1085,740"/>
<text x="1082" y="760" class="ntext" font-weight="700">Audit log</text>
<text x="1082" y="778" class="ntext">Every cleaning stage</text>
<text x="1082" y="794" class="ntext">records records_in,</text>
<text x="1082" y="810" class="ntext">records_out, and</text>
<text x="1082" y="826" class="ntext">exclusion reasons.</text>

<!-- below trips -->
<rect class="note" x="490" y="760" width="420" height="95"/>
<polygon class="nfold" points="490,760 490,775 505,760"/>
<text x="502" y="780" class="ntext" font-weight="700">Index coverage (12 total):</text>
<text x="502" y="798" class="ntext">hour_of_day · day_of_week · month · vendor_id</text>
<text x="502" y="814" class="ntext">trip_duration · distance_km · speed_kmh · passenger_count</text>
<text x="502" y="830" class="ntext">pickup_zone_id · time_slot_id · flags(type, trip_id)</text>

<!-- Bottom legend -->
<line x1="120" y1="905" x2="1280" y2="905" stroke="#000000" stroke-width="0.5"/>
<text x="120" y="927" class="legend">LEGEND:</text>
<text x="195" y="927" class="legend">★ Primary Key</text>
<text x="305" y="927" class="legend"># Foreign Key</text>
<text x="410" y="927" class="legend">* NOT NULL</text>
<text x="505" y="927" class="legend">+ Derived</text>
<text x="590" y="927" class="legend">|| = one</text>
<text x="655" y="927" class="legend">o{ = many</text>
</svg>
